<svg width="14" height="12" viewBox="0 0 14 12" fill="none" xmlns="http://www.w3.org/2000/svg">
<path d="M0.994245 4.8959L9.07517 1.56642C9.87286 1.2196 12.5781 0.109772 12.5781 0.109772C12.5781 0.109772 13.8266 -0.375777 13.7226 0.803414C13.6879 1.28896 13.4104 2.98838 13.133 4.82653L12.2659 10.2716C12.2659 10.2716 12.1966 11.0693 11.607 11.208C11.0174 11.3468 10.0463 10.7225 9.87286 10.5838C9.73413 10.4797 7.2717 8.91902 6.36997 8.15602C6.12719 7.94792 5.84974 7.53174 6.40465 7.04619C7.6532 5.90168 9.14453 4.47971 10.0463 3.57798C10.4625 3.1618 10.8786 2.1907 9.14454 3.36989L4.25436 6.66469C4.25436 6.66469 3.69945 7.01151 2.65899 6.69937C1.61852 6.38723 0.40465 5.97104 0.40465 5.97104C0.40465 5.97104 -0.42772 5.45081 0.994245 4.8959Z" fill="#E3FBDC"/>
</svg>
