<svg width="16" height="12" viewBox="0 0 16 12" fill="none" xmlns="http://www.w3.org/2000/svg">
<path d="M5.39156 11.7187C10.6982 11.7187 13.6005 7.32003 13.6005 3.50566C13.6005 3.38113 13.5977 3.2568 13.5921 3.13267C14.1568 2.72311 14.6441 2.21628 15.0312 1.6359C14.5046 1.86907 13.9461 2.02223 13.3743 2.09032C13.9765 1.7295 14.4271 1.16203 14.6423 0.493561C14.076 0.829693 13.4566 1.06659 12.8106 1.19405C12.3758 0.730118 11.8002 0.422711 11.173 0.319526C10.5458 0.216342 9.90215 0.323148 9.34183 0.623375C8.78151 0.923602 8.33589 1.40046 8.07412 1.97996C7.81235 2.55946 7.74907 3.2092 7.89408 3.82837C6.74688 3.77105 5.62456 3.47294 4.60001 2.95339C3.57546 2.43385 2.6716 1.70448 1.94714 0.812672C1.57818 1.44809 1.46513 2.2003 1.631 2.91618C1.79687 3.63206 2.2292 4.25778 2.83996 4.66596C2.38184 4.65277 1.9336 4.52957 1.53304 4.30674C1.53304 4.31871 1.53304 4.33068 1.53304 4.34385C1.53339 5.01033 1.76412 5.65618 2.18609 6.17189C2.60806 6.68759 3.19532 7.04141 3.84827 7.17335C3.42336 7.2895 2.97746 7.3065 2.54495 7.22304C2.72925 7.79617 3.08779 8.29744 3.57053 8.65689C4.05327 9.01634 4.63613 9.21604 5.23777 9.22812C4.21619 10.0295 2.95505 10.4641 1.65691 10.4621C1.42696 10.4622 1.19718 10.449 0.96875 10.4225C2.28815 11.2703 3.82351 11.7203 5.39156 11.7187Z" fill="#E3FBDC"/>
</svg>
